<!-- /home/mfretwell/Documents/Projects/TrueNorth/app/public/logo.svg -->
<svg width="200" height="56" viewBox="0 0 200 56" fill="none" xmlns="http://www.w3.org/2000/svg">
  <!-- Canadian maple leaf background -->
  <g transform="translate(5,5) scale(0.85)">
    <path d="M28 4L32 15L22 22H32L36 32L40 22H50L40 15L44 4L36 10L28 4Z" fill="#D61F26"/>
  </g>
  
  <!-- Text: PPI Canada -->
  <text x="56" y="30" font-family="Arial, sans-serif" font-size="24" font-weight="700" fill="#0A4B91">
    PPI Canada
  </text>
  
  <!-- Car silhouette -->
  <g transform="translate(30, 40) scale(0.6)">
    <path d="M10,13.5c0-0.8,0.7-1.5,1.5-1.5s1.5,0.7,1.5,1.5s-0.7,1.5-1.5,1.5S10,14.3,10,13.5z M24,13.5c0-0.8,0.7-1.5,1.5-1.5s1.5,0.7,1.5,1.5s-0.7,1.5-1.5,1.5S24,14.3,24,13.5z M29.5,19H8.5c-0.3,0-0.5-0.2-0.5-0.5v-2c0-0.3,0.2-0.5,0.5-0.5h21c0.3,0,0.5,0.2,0.5,0.5v2C30,18.8,29.8,19,29.5,19z M23.4,8H14.6c-0.3,0-0.5,0.2-0.6,0.4l-2.4,5.1c-0.1,0.2,0.1,0.5,0.4,0.5h13.9c0.3,0,0.5-0.2,0.4-0.5l-2.4-5.1C23.9,8.2,23.6,8,23.4,8z" fill="#0A4B91"/>
  </g>
</svg>
